<svg width="45" height="28" viewBox="0 0 45 28" fill="none" xmlns="http://www.w3.org/2000/svg">
<g clip-path="url(#clip0_93_536)">
<path opacity="0.07" d="M41.0308 0H4.05286C2.08841 0 0.586182 1.50223 0.586182 3.46668V24.2668C0.586182 26.2312 2.20397 27.7335 4.05286 27.7335H41.0308C42.9953 27.7335 44.4975 26.2312 44.4975 24.2668V3.46668C44.4975 1.50223 42.8797 0 41.0308 0Z" fill="black"/>
<path d="M41.0308 1.15556C42.3019 1.15556 43.3419 2.19557 43.3419 3.46669V24.2668C43.3419 25.5379 42.3019 26.5779 41.0308 26.5779H4.05287C2.78175 26.5779 1.74174 25.5379 1.74174 24.2668V3.46669C1.74174 2.19557 2.78175 1.15556 4.05287 1.15556H41.0308Z" fill="#006FCF"/>
<path d="M10.9527 11.8653L11.8471 14.0331H10.0652L10.9527 11.8653ZM29.5283 11.9554H26.0882V12.9111H29.4729V14.3428H26.0952V15.4083H29.5353V16.2622L31.9354 13.668L29.5353 10.964L29.5283 11.9554ZM13.2777 9.25142H17.8942L18.9191 11.4874L19.869 9.24449H31.8522L33.0979 10.6196L34.3863 9.24449H39.8903L35.8238 13.6957L39.8487 18.1192H34.2627L33.017 16.7441L31.717 18.1192H12.1764L11.6056 16.7441H10.2998L9.72782 18.1192H5.20842L9.00559 9.24449H12.9692L13.2777 9.25142ZM23.2883 10.4971H20.701L18.9677 14.5832L17.0899 10.4971H14.5222V16.0554L12.1418 10.4971H9.83875L7.08621 16.8666H8.8831L9.45395 15.4915H12.4538L13.0246 16.8666H16.1678V12.3194L18.1911 16.8735H19.5663L21.5769 12.3333V16.8747H23.2617L23.2895 10.496L23.2883 10.4971ZM34.0813 13.6957L37.006 10.4971H34.9005L33.0505 12.4916L31.2617 10.4971H24.4508V16.8735H31.1646L33.0297 14.8651L34.8185 16.8735H36.9852L34.0813 13.6957Z" fill="white"/>
</g>
<defs>
<clipPath id="clip0_93_536">
<rect width="43.9113" height="27.7335" fill="white" transform="translate(0.586182)"/>
</clipPath>
</defs>
</svg>
