<svg width="23" height="41" viewBox="0 0 23 41" fill="none" xmlns="http://www.w3.org/2000/svg">
<path d="M0.898073 21.8132L20.0175 40.0304C20.3365 40.3345 20.7604 40.5042 21.2011 40.5042C21.6419 40.5042 22.0657 40.3345 22.3847 40.0304L22.4053 40.0098C22.5605 39.8624 22.6841 39.6849 22.7685 39.4882C22.8529 39.2915 22.8965 39.0797 22.8965 38.8657C22.8965 38.6516 22.8529 38.4398 22.7685 38.2431C22.6841 38.0464 22.5605 37.8689 22.4053 37.7215L4.40084 20.5679L22.4053 3.42112C22.5605 3.27369 22.6841 3.09623 22.7685 2.89954C22.8529 2.70284 22.8965 2.49102 22.8965 2.27697C22.8965 2.06292 22.8529 1.8511 22.7685 1.65441C22.6841 1.45771 22.5605 1.28025 22.4053 1.13282L22.3847 1.11224C22.0657 0.808125 21.6419 0.63847 21.2011 0.63847C20.7604 0.63847 20.3365 0.808125 20.0175 1.11224L0.898073 19.3294C0.729926 19.4896 0.596062 19.6823 0.504596 19.8958C0.41313 20.1092 0.365967 20.3391 0.365967 20.5713C0.365967 20.8036 0.41313 21.0334 0.504596 21.2469C0.596062 21.4603 0.729926 21.653 0.898073 21.8132Z" fill="#1F1D1D"/>
</svg>
