<svg width="14" height="26" viewBox="0 0 14 26" fill="none" xmlns="http://www.w3.org/2000/svg">
<path d="M0.33064 13.6881L12.2111 25.0079C12.4093 25.1968 12.6727 25.3022 12.9465 25.3022C13.2204 25.3022 13.4838 25.1968 13.682 25.0079L13.6948 24.9951C13.7912 24.9035 13.868 24.7932 13.9205 24.671C13.9729 24.5487 14 24.4171 14 24.2841C14 24.1511 13.9729 24.0195 13.9205 23.8973C13.868 23.775 13.7912 23.6648 13.6948 23.5732L2.50719 12.9143L13.6948 2.25961C13.7912 2.168 13.868 2.05773 13.9205 1.93551C13.9729 1.81329 14 1.68167 14 1.54866C14 1.41566 13.9729 1.28404 13.9205 1.16182C13.868 1.03959 13.7912 0.929325 13.6948 0.837715L13.682 0.824923C13.4838 0.635952 13.2204 0.530533 12.9465 0.530533C12.6727 0.530533 12.4093 0.635952 12.2111 0.824923L0.33064 12.1447C0.226157 12.2442 0.142976 12.364 0.0861413 12.4966C0.0293064 12.6293 0 12.7721 0 12.9164C0 13.0607 0.0293064 13.2035 0.0861413 13.3362C0.142976 13.4688 0.226157 13.5885 0.33064 13.6881Z" fill="white"/>
</svg>
