<svg width="23" height="41" viewBox="0 0 23 41" fill="none" xmlns="http://www.w3.org/2000/svg">
<path d="M22.3644 21.8132L3.24495 40.0304C2.92593 40.3345 2.50209 40.5042 2.06135 40.5042C1.6206 40.5042 1.19677 40.3345 0.877748 40.0304L0.857162 40.0098C0.701973 39.8624 0.5784 39.6849 0.493958 39.4882C0.409513 39.2915 0.365967 39.0797 0.365967 38.8657C0.365967 38.6516 0.409513 38.4398 0.493958 38.2431C0.5784 38.0464 0.701973 37.8689 0.857162 37.7215L18.8616 20.5679L0.857162 3.42112C0.701973 3.27369 0.5784 3.09623 0.493958 2.89954C0.409513 2.70284 0.365967 2.49102 0.365967 2.27697C0.365967 2.06292 0.409513 1.8511 0.493958 1.65441C0.5784 1.45771 0.701973 1.28025 0.857162 1.13282L0.877748 1.11224C1.19677 0.808125 1.6206 0.63847 2.06135 0.63847C2.50209 0.63847 2.92593 0.808125 3.24495 1.11224L22.3644 19.3294C22.5325 19.4896 22.6664 19.6823 22.7579 19.8958C22.8493 20.1092 22.8965 20.3391 22.8965 20.5713C22.8965 20.8036 22.8493 21.0334 22.7579 21.2469C22.6664 21.4603 22.5325 21.653 22.3644 21.8132Z" fill="#1F1D1D"/>
</svg>
