<svg width="14" height="26" viewBox="0 0 14 26" fill="none" xmlns="http://www.w3.org/2000/svg">
<path d="M13.6694 13.6881L1.78894 25.0079C1.59071 25.1968 1.32734 25.3022 1.05347 25.3022C0.779602 25.3022 0.51624 25.1968 0.318009 25.0079L0.305218 24.9951C0.208787 24.9035 0.132001 24.7932 0.0795298 24.671C0.0270586 24.5487 0 24.4171 0 24.2841C0 24.1511 0.0270586 24.0195 0.0795298 23.8973C0.132001 23.775 0.208787 23.6648 0.305218 23.5732L11.4928 12.9143L0.305218 2.25961C0.208787 2.168 0.132001 2.05773 0.0795298 1.93551C0.0270586 1.81329 0 1.68167 0 1.54866C0 1.41566 0.0270586 1.28404 0.0795298 1.16182C0.132001 1.03959 0.208787 0.929325 0.305218 0.837715L0.318009 0.824923C0.51624 0.635952 0.779602 0.530533 1.05347 0.530533C1.32734 0.530533 1.59071 0.635952 1.78894 0.824923L13.6694 12.1447C13.7738 12.2442 13.857 12.364 13.9139 12.4966C13.9707 12.6293 14 12.7721 14 12.9164C14 13.0607 13.9707 13.2035 13.9139 13.3362C13.857 13.4688 13.7738 13.5885 13.6694 13.6881Z" fill="white"/>
</svg>
