<svg width="22" height="28" viewBox="0 0 22 28" fill="none" xmlns="http://www.w3.org/2000/svg">
<path d="M2.33398 27.1803C1.80065 27.1803 1.33398 26.9803 0.933984 26.5803C0.533984 26.1803 0.333984 25.7137 0.333984 25.1803V7.847C0.333984 7.31367 0.533984 6.847 0.933984 6.447C1.33398 6.047 1.80065 5.847 2.33398 5.847H6.00065V5.51367C6.00065 4.11367 6.48398 2.93034 7.45065 1.96367C8.41732 0.997003 9.60065 0.513672 11.0007 0.513672C12.4007 0.513672 13.584 0.997003 14.5507 1.96367C15.5173 2.93034 16.0007 4.11367 16.0007 5.51367V5.847H19.6673C20.2007 5.847 20.6673 6.047 21.0673 6.447C21.4673 6.847 21.6673 7.31367 21.6673 7.847V25.1803C21.6673 25.7137 21.4673 26.1803 21.0673 26.5803C20.6673 26.9803 20.2007 27.1803 19.6673 27.1803H2.33398ZM2.33398 25.1803H19.6673V7.847H16.0007V10.847C16.0007 11.1359 15.9062 11.3748 15.7173 11.5637C15.5284 11.7526 15.2895 11.847 15.0007 11.847C14.7118 11.847 14.4729 11.7526 14.284 11.5637C14.0951 11.3748 14.0007 11.1359 14.0007 10.847V7.847H8.00065V10.847C8.00065 11.1359 7.90621 11.3748 7.71732 11.5637C7.52843 11.7526 7.28954 11.847 7.00065 11.847C6.71176 11.847 6.47287 11.7526 6.28398 11.5637C6.0951 11.3748 6.00065 11.1359 6.00065 10.847V7.847H2.33398V25.1803ZM8.00065 5.847H14.0007V5.51367C14.0007 4.66922 13.7118 3.95811 13.134 3.38034C12.5562 2.80256 11.8451 2.51367 11.0007 2.51367C10.1562 2.51367 9.4451 2.80256 8.86732 3.38034C8.28954 3.95811 8.00065 4.66922 8.00065 5.51367V5.847Z" fill="black"/>
</svg>
