<svg width="45" height="28" viewBox="0 0 45 28" fill="none" xmlns="http://www.w3.org/2000/svg">
<g clip-path="url(#clip0_93_512)">
<path opacity="0.07" d="M41.01 0H4.03205C2.0676 0 0.565369 1.50223 0.565369 3.46668V24.2668C0.565369 26.2312 2.18315 27.7335 4.03205 27.7335H41.01C42.9744 27.7335 44.4767 26.2312 44.4767 24.2668V3.46668C44.4767 1.50223 42.8589 0 41.01 0Z" fill="black"/>
<path d="M41.01 1.15556C42.2811 1.15556 43.3211 2.19557 43.3211 3.46669V24.2668C43.3211 25.5379 42.2811 26.5779 41.01 26.5779H4.03207C2.76095 26.5779 1.72095 25.5379 1.72095 24.2668V3.46669C1.72095 2.19557 2.76095 1.15556 4.03207 1.15556H41.01Z" fill="#5A31F4"/>
<path d="M25.2735 11.224C25.2735 13.1514 23.9135 14.5266 22.0137 14.5266H20.2237C20.1942 14.527 20.1654 14.536 20.1408 14.5524C20.1162 14.5687 20.0969 14.5919 20.0851 14.619C20.0775 14.6369 20.0736 14.6562 20.0735 14.6756V17.2086C20.0735 17.2283 20.0696 17.2478 20.0621 17.2659C20.0545 17.2841 20.0434 17.3006 20.0295 17.3144C20.0155 17.3283 19.9989 17.3392 19.9807 17.3467C19.9625 17.3541 19.943 17.3578 19.9233 17.3577H18.6707C18.6308 17.3577 18.5926 17.3419 18.5645 17.3137C18.5363 17.2855 18.5205 17.2473 18.5205 17.2075V8.07275C18.52 8.04299 18.5286 8.01379 18.5451 7.98902C18.5616 7.96425 18.5852 7.94509 18.6129 7.93408C18.6312 7.92642 18.6508 7.92249 18.6707 7.92253H22.0218C23.9135 7.92253 25.2735 9.29649 25.2735 11.224ZM23.7112 11.224C23.7112 10.1169 22.9509 9.30804 21.9201 9.30804H20.2237C20.204 9.30804 20.1845 9.31193 20.1663 9.31948C20.148 9.32703 20.1315 9.33809 20.1175 9.35204C20.1036 9.36599 20.0925 9.38255 20.085 9.40078C20.0774 9.419 20.0735 9.43854 20.0735 9.45827V12.9827C20.0733 13.0025 20.0771 13.0221 20.0846 13.0404C20.0922 13.0586 20.1033 13.0752 20.1174 13.089C20.1314 13.103 20.1479 13.1141 20.1662 13.1217C20.1844 13.1292 20.204 13.133 20.2237 13.1329H21.9201C22.9509 13.1387 23.7112 12.3298 23.7112 11.224ZM25.6456 15.6047C25.6324 15.3086 25.694 15.014 25.8247 14.7481C25.9553 14.4821 26.1509 14.2533 26.3933 14.0828C26.8821 13.7177 27.6459 13.5282 28.768 13.4889L29.9617 13.4473V13.0971C29.9617 12.3957 29.4879 12.0999 28.7275 12.0999C27.9672 12.0999 27.4853 12.3668 27.3755 12.8048C27.3662 12.8355 27.347 12.8624 27.3209 12.8812C27.2948 12.9 27.2632 12.9097 27.2311 12.9088H26.0501C26.0176 12.9092 25.9858 12.8991 25.9596 12.8799C25.9333 12.8607 25.914 12.8335 25.9045 12.8025C25.8982 12.7819 25.8966 12.7602 25.8999 12.7389C26.0755 11.7012 26.9445 10.9131 28.7818 10.9131C30.737 10.9131 31.4431 11.8179 31.4431 13.5432V17.2086C31.4429 17.2284 31.4389 17.248 31.4311 17.2663C31.4233 17.2845 31.412 17.3011 31.3979 17.3149C31.3837 17.3288 31.3669 17.3397 31.3485 17.347C31.3301 17.3544 31.3104 17.358 31.2905 17.3577H30.1003C30.0605 17.3577 30.0223 17.3419 29.9941 17.3137C29.9659 17.2855 29.9501 17.2473 29.9501 17.2075V16.9347C29.9505 16.9121 29.9439 16.8899 29.9313 16.8711C29.9187 16.8523 29.9007 16.8378 29.8796 16.8296C29.8588 16.8214 29.836 16.8194 29.814 16.8239C29.7921 16.8284 29.7719 16.8392 29.756 16.855C29.3977 17.241 28.8223 17.5195 27.899 17.5195C26.5412 17.5195 25.6456 16.818 25.6456 15.6047ZM29.9617 14.8108V14.5266L28.4144 14.6074C27.5997 14.649 27.1259 14.9842 27.1259 15.5504C27.1259 16.0635 27.5604 16.3477 28.3208 16.3477C29.3527 16.3477 29.9617 15.7931 29.9617 14.8108ZM32.6379 20.1264V19.0644C32.6382 19.0422 32.6434 19.0203 32.6532 19.0003C32.663 18.9803 32.6771 18.9628 32.6946 18.9489C32.7118 18.9349 32.7319 18.9249 32.7535 18.9195C32.7751 18.9141 32.7975 18.9135 32.8194 18.9177C33.0019 18.9512 33.1868 18.9685 33.3729 18.9685C33.6915 18.986 34.0068 18.8956 34.2678 18.712C34.5288 18.5283 34.7204 18.2621 34.8115 17.9563L34.889 17.7124C34.9005 17.6795 34.9005 17.6437 34.889 17.6107L32.4103 11.2887C32.3959 11.254 32.3951 11.2152 32.4079 11.1799C32.4207 11.1446 32.4463 11.1154 32.4796 11.098C32.5017 11.0864 32.5263 11.0804 32.5513 11.0807H33.753C33.7839 11.0808 33.814 11.0902 33.8394 11.1077C33.8647 11.1253 33.8842 11.1501 33.8952 11.1789L35.5777 15.6382C35.5881 15.6681 35.6076 15.6941 35.6335 15.7123C35.6594 15.7305 35.6904 15.7402 35.7221 15.7399C35.7537 15.7399 35.7846 15.7301 35.8104 15.7119C35.8363 15.6937 35.8559 15.668 35.8666 15.6382L37.3283 11.1916C37.3383 11.161 37.3578 11.1343 37.384 11.1156C37.4102 11.0968 37.4417 11.087 37.4739 11.0876H38.7173C38.7546 11.0878 38.7906 11.1015 38.8186 11.1261C38.8467 11.1508 38.8649 11.1847 38.8699 11.2217C38.8727 11.2463 38.8695 11.2713 38.8606 11.2945L36.2086 18.3156C35.5985 19.9484 34.5527 20.3644 33.4006 20.3644C33.182 20.3705 32.9636 20.3448 32.7523 20.2882C32.7169 20.2795 32.6858 20.2584 32.6646 20.2287C32.6434 20.199 32.6347 20.1627 32.6379 20.1264ZM10.4685 7.39559C8.89175 7.3838 7.36978 7.9735 6.21258 9.04457C6.16334 9.08936 6.1326 9.15092 6.12641 9.21719C6.12021 9.28346 6.13899 9.34966 6.17907 9.4028L6.89321 10.3723C6.91634 10.405 6.9464 10.4322 6.98124 10.452C7.01607 10.4717 7.05484 10.4836 7.09477 10.4867C7.1347 10.4897 7.17482 10.484 7.21229 10.4698C7.24975 10.4557 7.28363 10.4334 7.31152 10.4047C7.72743 9.99167 8.22137 9.66556 8.76457 9.44535C9.30776 9.22513 9.88935 9.11521 10.4754 9.122C12.9252 9.122 14.2044 10.9524 14.2044 12.762C14.2044 14.7265 12.8605 16.1108 10.9284 16.1374C9.43544 16.1374 8.30992 15.1552 8.30992 13.8563C8.3112 13.5279 8.38584 13.2039 8.52839 12.908C8.67094 12.6121 8.87779 12.3518 9.13384 12.1461C9.18835 12.1014 9.22296 12.0369 9.23011 11.9668C9.23725 11.8966 9.21635 11.8265 9.17197 11.7717L8.42086 10.8299C8.39818 10.801 8.36988 10.7769 8.33766 10.7592C8.30544 10.7414 8.26996 10.7304 8.23337 10.7267C8.19677 10.723 8.15981 10.7268 8.12471 10.7378C8.08961 10.7488 8.0571 10.7668 8.02912 10.7906C7.56909 11.1596 7.19721 11.6267 6.94058 12.1577C6.68487 12.6875 6.55177 13.268 6.55116 13.8563C6.55116 16.0923 8.46361 17.8453 10.9134 17.8592H10.9481C13.8566 17.8222 15.9597 15.6821 15.9597 12.7574C15.9597 10.1608 14.0334 7.39559 10.4685 7.39559Z" fill="white"/>
</g>
<defs>
<clipPath id="clip0_93_512">
<rect width="43.9113" height="27.7335" fill="white" transform="translate(0.565369)"/>
</clipPath>
</defs>
</svg>
