<svg width="45" height="28" viewBox="0 0 45 28" fill="none" xmlns="http://www.w3.org/2000/svg">
<g clip-path="url(#clip0_93_556)">
<path opacity="0.07" d="M41.098 0H4.12006C2.15561 0 0.653381 1.50223 0.653381 3.46668V24.2668C0.653381 26.2312 2.27117 27.7335 4.12006 27.7335H41.098C43.0625 27.7335 44.5647 26.2312 44.5647 24.2668V3.46668C44.5647 1.50223 42.9469 0 41.098 0Z" fill="black"/>
<path d="M41.098 1.15556C42.3691 1.15556 43.4091 2.19557 43.4091 3.46669V24.2668C43.4091 25.5379 42.3691 26.5779 41.098 26.5779H4.12005C2.84893 26.5779 1.80893 25.5379 1.80893 24.2668V3.46669C1.80893 2.19557 2.84893 1.15556 4.12005 1.15556H41.098Z" fill="white"/>
<path d="M4.77874 8.27381H2.96451V14.6294H4.77874C5.73785 14.6294 6.43119 14.3983 7.04364 13.9014C7.77164 13.3005 8.1992 12.3992 8.1992 11.4632C8.18764 9.5796 6.78941 8.27381 4.77874 8.27381ZM6.23474 13.0578C5.84185 13.4045 5.34496 13.5663 4.53607 13.5663H4.20096V9.36004H4.53607C5.33341 9.36004 5.81874 9.49871 6.23474 9.86849C6.6623 10.2498 6.91653 10.8392 6.91653 11.4516C6.91653 12.0641 6.6623 12.6765 6.23474 13.0578ZM8.76542 8.27381H10.0019V14.6294H8.76542V8.27381ZM13.0294 10.712C12.2899 10.4347 12.0703 10.2498 12.0703 9.91471C12.0703 9.51026 12.4632 9.20982 12.9948 9.20982C13.3646 9.20982 13.6766 9.36004 13.9886 9.72982L14.6357 8.88626C14.1041 8.42404 13.4686 8.18137 12.7637 8.18137C11.6428 8.18137 10.7761 8.96715 10.7761 10.0072C10.7761 10.8854 11.1805 11.3361 12.3361 11.7521C12.8214 11.9254 13.0641 12.0409 13.1912 12.1103C13.4339 12.2721 13.561 12.5032 13.561 12.7689C13.561 13.2889 13.1566 13.6703 12.6019 13.6703C12.0125 13.6703 11.5388 13.3698 11.2499 12.8267L10.4525 13.6009C11.0188 14.4445 11.7121 14.8143 12.6481 14.8143C13.9308 14.8143 14.8437 13.9592 14.8437 12.7227C14.8668 11.6943 14.4392 11.2321 13.0294 10.712ZM15.2481 11.4632C15.2481 13.3352 16.7157 14.7796 18.5992 14.7796C19.1308 14.7796 19.593 14.6756 20.1477 14.4098V12.9538C19.6508 13.4507 19.2117 13.6472 18.657 13.6472C17.409 13.6472 16.5192 12.7458 16.5192 11.4516C16.5192 10.2267 17.4321 9.2676 18.5992 9.2676C19.1886 9.2676 19.6392 9.4756 20.1477 9.98404V8.52804C19.6046 8.2507 19.1539 8.13515 18.6224 8.13515C16.7619 8.13515 15.2481 9.61426 15.2481 11.4632ZM29.9931 12.5494L28.2944 8.27381H26.9424L29.6348 14.7912H30.3051L33.0438 8.27381H31.7033L29.9931 12.5494ZM33.61 14.6294H37.1229V13.5547H34.8464V11.8445H37.042V10.7698H34.8464V9.36004H37.1229V8.27381H33.61V14.6294ZM42.034 10.1574C42.034 8.96715 41.2136 8.28537 39.7807 8.28537H37.9433V14.641H39.1798V12.0872H39.3416L41.0518 14.641H42.5771L40.578 11.9601C41.514 11.7636 42.034 11.128 42.034 10.1574ZM39.538 11.2089H39.1798V9.27915H39.5611C40.3353 9.27915 40.7513 9.60271 40.7513 10.2267C40.7513 10.8623 40.3353 11.2089 39.538 11.2089Z" fill="#231F20"/>
<path d="M23.9495 14.8605C24.8478 14.8605 25.7092 14.5037 26.3444 13.8685C26.9796 13.2333 27.3364 12.3718 27.3364 11.4736C27.3364 10.5753 26.9796 9.7138 26.3444 9.07862C25.7092 8.44345 24.8478 8.08661 23.9495 8.08661C23.0512 8.08661 22.1897 8.44345 21.5545 9.07862C20.9194 9.7138 20.5625 10.5753 20.5625 11.4736C20.5625 12.3718 20.9194 13.2333 21.5545 13.8685C22.1897 14.5037 23.0512 14.8605 23.9495 14.8605Z" fill="url(#paint0_linear_93_556)"/>
<path opacity="0.65" d="M23.9495 14.8605C24.8478 14.8605 25.7092 14.5037 26.3444 13.8685C26.9796 13.2333 27.3364 12.3718 27.3364 11.4736C27.3364 10.5753 26.9796 9.7138 26.3444 9.07862C25.7092 8.44345 24.8478 8.08661 23.9495 8.08661C23.0512 8.08661 22.1897 8.44345 21.5545 9.07862C20.9194 9.7138 20.5625 10.5753 20.5625 11.4736C20.5625 12.3718 20.9194 13.2333 21.5545 13.8685C22.1897 14.5037 23.0512 14.8605 23.9495 14.8605Z" fill="url(#paint1_linear_93_556)"/>
<path d="M42.9122 8.67364C42.9122 8.55808 42.8313 8.50031 42.7042 8.50031H42.5193V9.05497H42.658V8.83542L42.8198 9.05497H42.9816L42.7967 8.82386C42.866 8.81231 42.9122 8.75453 42.9122 8.67364ZM42.6811 8.75453H42.658V8.60431H42.6811C42.7505 8.60431 42.7851 8.62742 42.7851 8.67364C42.7851 8.73142 42.7505 8.75453 42.6811 8.75453Z" fill="#231F20"/>
<path d="M42.7273 8.2923C42.4616 8.2923 42.242 8.51185 42.242 8.77763C42.242 9.04341 42.4616 9.26297 42.7273 9.26297C42.9931 9.26297 43.2127 9.04341 43.2127 8.77763C43.2127 8.51185 42.9931 8.2923 42.7273 8.2923ZM42.7273 9.18208C42.5193 9.18208 42.3344 9.00875 42.3344 8.77763C42.3344 8.55808 42.5078 8.37319 42.7273 8.37319C42.9353 8.37319 43.1087 8.55808 43.1087 8.77763C43.1087 8.99719 42.9353 9.18208 42.7273 9.18208Z" fill="#231F20"/>
<path d="M43.4091 15.0038C43.4091 15.0038 31.9575 22.9645 11.0257 26.5779H41.0968C41.7066 26.5779 42.2917 26.337 42.7245 25.9076C43.1574 25.4781 43.4031 24.895 43.408 24.2853L43.4357 20.7955L43.4091 15.0038Z" fill="#F48120"/>
</g>
<defs>
<linearGradient id="paint0_linear_93_556" x1="25.6794" y1="14.1845" x2="23.3393" y2="10.5202" gradientUnits="userSpaceOnUse">
<stop stop-color="#F89F20"/>
<stop offset="0.25" stop-color="#F79A20"/>
<stop offset="0.533" stop-color="#F68D20"/>
<stop offset="0.62" stop-color="#F58720"/>
<stop offset="0.723" stop-color="#F48120"/>
<stop offset="1" stop-color="#F37521"/>
</linearGradient>
<linearGradient id="paint1_linear_93_556" x1="25.3107" y1="14.1348" x2="21.8903" y2="7.44874" gradientUnits="userSpaceOnUse">
<stop stop-color="#F58720"/>
<stop offset="0.359" stop-color="#E16F27"/>
<stop offset="0.703" stop-color="#D4602C"/>
<stop offset="0.982" stop-color="#D05B2E"/>
</linearGradient>
<clipPath id="clip0_93_556">
<rect width="43.9113" height="27.7335" fill="white" transform="translate(0.653381)"/>
</clipPath>
</defs>
</svg>
