<svg width="45" height="28" viewBox="0 0 45 28" fill="none" xmlns="http://www.w3.org/2000/svg">
<g clip-path="url(#clip0_93_541)">
<path d="M40.0117 0H4.45007C4.30194 0 4.15354 0 4.00567 0.000785169C3.88083 0.00183206 3.75625 0.00314067 3.63141 0.00654307C3.35948 0.0138713 3.08519 0.0300981 2.81666 0.0782551C2.54736 0.124394 2.28644 0.210398 2.04249 0.333435C1.55206 0.582877 1.15343 0.981504 0.903992 1.47193C0.780735 1.71598 0.694721 1.9771 0.648812 2.24663C0.600131 2.51542 0.584166 2.78944 0.576838 3.06111C0.573648 3.18584 0.571729 3.3106 0.57108 3.43537C0.570557 3.58299 0.570557 3.73112 0.570557 3.87952V23.8537C0.570557 24.0021 0.570557 24.15 0.57108 24.2983C0.571865 24.4229 0.573436 24.5478 0.576838 24.6726C0.584166 24.9438 0.600393 25.218 0.648812 25.4866C0.694627 25.7561 0.780553 26.0172 0.90373 26.2613C1.02757 26.505 1.18922 26.7276 1.38268 26.9208C1.57581 27.1143 1.79842 27.276 2.04222 27.3998C2.29008 27.5262 2.54395 27.6065 2.81692 27.6555C3.08519 27.7034 3.35948 27.7196 3.63141 27.7269C3.75625 27.7298 3.88083 27.7314 4.00567 27.7322C4.15354 27.7332 4.30194 27.7332 4.45007 27.7332H40.0117C40.1595 27.7332 40.3079 27.7332 40.4558 27.7322C40.5804 27.7316 40.705 27.7298 40.8303 27.7269C41.1017 27.7196 41.376 27.7034 41.6451 27.6555C41.9144 27.6093 42.1754 27.5231 42.4193 27.3998C42.9094 27.15 43.308 26.7514 43.5577 26.2613C43.6842 26.0134 43.7642 25.7595 43.8127 25.4866C43.8613 25.218 43.877 24.9438 43.8844 24.6726C43.8878 24.5478 43.8896 24.4229 43.8901 24.2983C43.8912 24.15 43.8912 24.0021 43.8912 23.8537V3.87978C43.8912 3.73138 43.8912 3.58325 43.8901 3.43511C43.8896 3.31043 43.8877 3.18575 43.8844 3.06111C43.877 2.78944 43.8613 2.51542 43.8127 2.24663C43.7671 1.97706 43.6811 1.71589 43.5577 1.47193C43.3082 0.98159 42.9096 0.582996 42.4193 0.333435C42.1753 0.210525 41.9144 0.124611 41.6451 0.0785169C41.376 0.0300981 41.1017 0.014133 40.8303 0.00680479C40.7055 0.00363462 40.5807 0.00171522 40.4558 0.00104689C40.3079 0 40.1595 0 40.0117 0Z" fill="black"/>
<path d="M40.0116 0.924408L40.4492 0.925193C40.5675 0.925978 40.6861 0.927287 40.8052 0.930428C41.0127 0.936185 41.2551 0.94744 41.4812 0.988007C41.6775 1.02334 41.8424 1.07699 42.0005 1.1576C42.3168 1.31845 42.5738 1.57573 42.7343 1.89226C42.8144 2.04929 42.8678 2.21313 42.9032 2.41126C42.9435 2.63477 42.9547 2.87791 42.9602 3.0865C42.9636 3.20428 42.9652 3.32205 42.9654 3.44244C42.9668 3.58822 42.9668 3.73374 42.9668 3.87978V23.8539C42.9668 24 42.9668 24.1455 42.9657 24.2942C42.9652 24.4119 42.9636 24.5297 42.9605 24.6475C42.9547 24.8558 42.9435 25.099 42.9026 25.3251C42.873 25.505 42.816 25.6793 42.7338 25.842C42.573 26.1586 42.3156 26.4159 41.9989 26.5766C41.8419 26.6567 41.6775 26.7104 41.4831 26.7455C41.2525 26.7866 40.9996 26.7978 40.8094 26.803C40.6898 26.8057 40.5707 26.8075 40.4485 26.808C40.3032 26.8091 40.1572 26.8091 40.0116 26.8091H4.44432C4.30037 26.8091 4.15642 26.8091 4.00986 26.808C3.89207 26.8075 3.77429 26.8059 3.65653 26.8033C3.46181 26.7981 3.20899 26.7866 2.98024 26.7457C2.79939 26.7156 2.62414 26.6582 2.46046 26.5756C2.30346 26.4958 2.16016 26.3916 2.03595 26.2668C1.91134 26.1424 1.80728 25.999 1.72764 25.842C1.64539 25.6783 1.58839 25.5032 1.55856 25.3225C1.51773 25.0966 1.50622 24.8545 1.50098 24.6478C1.49803 24.5296 1.49628 24.4113 1.49575 24.2931L1.49496 23.9458V3.78818L1.49549 3.4414C1.49603 3.323 1.49777 3.2046 1.50072 3.08624C1.50648 2.87895 1.51773 2.63686 1.55882 2.40916C1.58871 2.2288 1.64571 2.054 1.7279 1.89069C1.80746 1.73418 1.9111 1.59128 2.03673 1.46591C2.16124 1.3412 2.30469 1.23697 2.46177 1.15708C2.62505 1.07505 2.79974 1.01805 2.97998 0.988007C3.20637 0.94744 3.44899 0.936185 3.65679 0.930428C3.77509 0.927287 3.89365 0.925978 4.01117 0.925193L4.45008 0.924408H40.0116Z" fill="white"/>
<path d="M11.9576 9.36183C12.325 8.9025 12.5742 8.28562 12.5085 7.6554C11.9709 7.68209 11.315 8.01003 10.935 8.46988C10.594 8.86351 10.2922 9.50604 10.3707 10.1098C10.9743 10.1622 11.5773 9.80833 11.9576 9.36183Z" fill="black"/>
<path d="M12.5017 10.2279C11.6249 10.1755 10.8801 10.7251 10.4616 10.7251C10.0428 10.7251 9.40186 10.254 8.70856 10.2669C7.8064 10.2799 6.96941 10.7903 6.51139 11.6016C5.56971 13.2243 6.26276 15.6322 7.17879 16.9539C7.62345 17.6082 8.15946 18.3279 8.86559 18.302C9.53298 18.2758 9.79445 17.8702 10.6053 17.8702C11.4158 17.8702 11.6514 18.302 12.3578 18.2889C13.0901 18.2758 13.5481 17.6346 13.9927 16.9803C14.5031 16.2344 14.7117 15.5147 14.7248 15.4754C14.7117 15.4623 13.3125 14.9255 13.2994 13.3159C13.2864 11.9681 14.3981 11.3268 14.4505 11.2873C13.8226 10.3587 12.8417 10.254 12.5014 10.2279" fill="black"/>
<path d="M21.2396 8.40393C23.1444 8.40393 24.4711 9.71699 24.4711 11.6286C24.4711 13.547 23.1172 14.8669 21.1919 14.8669H19.083V18.2212H17.5592V8.40393H21.2396ZM19.083 13.5879H20.8313C22.1582 13.5879 22.913 12.8736 22.913 11.6354C22.913 10.3975 22.158 9.68977 20.8381 9.68977H19.083V13.5879Z" fill="black"/>
<path d="M24.849 16.1868C24.849 14.9282 25.8082 14.2071 27.5769 14.0982L29.4749 13.9826V13.4382C29.4749 12.6425 28.9512 12.207 28.0192 12.207C27.2503 12.207 26.6923 12.6014 26.5772 13.2068H25.2026C25.2437 11.9348 26.4408 11.0096 28.0601 11.0096C29.8016 11.0096 30.9377 11.9212 30.9377 13.3364V18.2209H29.5296V17.0439H29.4956C29.0941 17.8126 28.2095 18.2955 27.2503 18.2955C25.8354 18.2955 24.849 17.4522 24.849 16.1868ZM29.4749 15.5542V15.003L27.7811 15.1119C26.8284 15.1731 26.3322 15.5267 26.3322 16.1457C26.3322 16.7445 26.8491 17.1324 27.6586 17.1324C28.6924 17.1324 29.4749 16.4723 29.4749 15.5542Z" fill="black"/>
<path d="M32.2324 20.8468V19.67C32.3277 19.6834 32.5588 19.697 32.6813 19.697C33.3547 19.697 33.7358 19.4117 33.9671 18.6765L34.1032 18.2413L31.5247 11.0981H33.1165L34.9128 16.8942H34.9468L36.7427 11.0981H38.2939L35.6202 18.6017C35.0078 20.323 34.3071 20.8878 32.8242 20.8878C32.7085 20.8878 32.3343 20.8742 32.2324 20.8468Z" fill="black"/>
</g>
<defs>
<clipPath id="clip0_93_541">
<rect width="43.9113" height="27.7335" fill="white" transform="translate(0.275208)"/>
</clipPath>
</defs>
</svg>
