<svg width="44" height="28" viewBox="0 0 44 28" fill="none" xmlns="http://www.w3.org/2000/svg">
<g clip-path="url(#clip0_93_522)">
<path opacity="0.07" d="M40.4764 0H3.49842C1.53397 0 0.0317383 1.50223 0.0317383 3.46668V24.2668C0.0317383 26.2312 1.64952 27.7335 3.49842 27.7335H40.4764C42.4408 27.7335 43.943 26.2312 43.943 24.2668V3.46668C43.943 1.50223 42.3253 0 40.4764 0Z" fill="black"/>
<path d="M40.4763 1.15556C41.7475 1.15556 42.7875 2.19557 42.7875 3.46669V24.2668C42.7875 25.5379 41.7475 26.5779 40.4763 26.5779H3.49841C2.22729 26.5779 1.18729 25.5379 1.18729 24.2668V3.46669C1.18729 2.19557 2.22729 1.15556 3.49841 1.15556H40.4763Z" fill="white"/>
<path d="M17.3651 21.9557C21.8325 21.9557 25.4541 18.3341 25.4541 13.8667C25.4541 9.39934 21.8325 5.7778 17.3651 5.7778C12.8977 5.7778 9.27621 9.39934 9.27621 13.8667C9.27621 18.3341 12.8977 21.9557 17.3651 21.9557Z" fill="#EB001B"/>
<path d="M26.6096 21.9557C31.077 21.9557 34.6985 18.3341 34.6985 13.8667C34.6985 9.39934 31.077 5.7778 26.6096 5.7778C22.1422 5.7778 18.5207 9.39934 18.5207 13.8667C18.5207 18.3341 22.1422 21.9557 26.6096 21.9557Z" fill="#F79E1B"/>
<path d="M25.4541 13.8667C25.4541 11.0934 24.0674 8.6667 21.9874 7.28003C19.9074 8.78226 18.5207 11.2089 18.5207 13.8667C18.5207 16.5245 19.9074 19.0668 21.9874 20.4534C24.0674 19.0668 25.4541 16.6401 25.4541 13.8667Z" fill="#FF5F00"/>
</g>
<defs>
<clipPath id="clip0_93_522">
<rect width="43.9113" height="27.7335" fill="white" transform="translate(0.0317383)"/>
</clipPath>
</defs>
</svg>
