<svg width="45" height="28" viewBox="0 0 45 28" fill="none" xmlns="http://www.w3.org/2000/svg">
<g clip-path="url(#clip0_93_516)">
<path opacity="0.07" d="M41.3207 0H4.34278C2.37833 0 0.876099 1.50223 0.876099 3.46668V24.2668C0.876099 26.2312 2.49388 27.7335 4.34278 27.7335H41.3207C43.2852 27.7335 44.7874 26.2312 44.7874 24.2668V3.46668C44.7874 1.50223 43.1696 0 41.3207 0Z" fill="black"/>
<path d="M41.3207 1.15556C42.5919 1.15556 43.6319 2.19557 43.6319 3.46669V24.2668C43.6319 25.5379 42.5919 26.5779 41.3207 26.5779H4.3428C3.07168 26.5779 2.03168 25.5379 2.03168 24.2668V3.46669C2.03168 2.19557 3.07168 1.15556 4.3428 1.15556H41.3207Z" fill="white"/>
<path d="M28.494 9.59115C28.7251 8.43559 28.494 7.6267 27.8007 6.93336C27.1073 6.12447 25.8362 5.7778 24.2184 5.7778H19.4806C19.134 5.7778 18.9029 6.00891 18.7873 6.35558L17.054 18.0267C17.054 18.2579 17.1695 18.489 17.4006 18.489H20.5206L20.9829 14.5601L23.0629 12.0178L28.494 9.59115Z" fill="#003087"/>
<path d="M28.494 9.59116L28.2629 9.82227C27.6851 13.0578 25.7207 14.2134 22.9473 14.2134H21.6762C21.3295 14.2134 21.0984 14.4445 20.9829 14.7912L20.2895 19.2979L20.0584 20.4534C20.0584 20.6845 20.174 20.9157 20.4051 20.9157H22.8318C23.1784 20.9157 23.4095 20.6845 23.4095 20.4534V20.3379L23.8718 17.5645V17.449C23.8718 17.2179 24.2184 16.9867 24.4495 16.9867H24.7962C27.2229 16.9867 29.0718 16.0623 29.534 13.289C29.7651 12.1334 29.6496 11.2089 29.0718 10.5156C28.9562 9.93782 28.7251 9.70671 28.494 9.59116Z" fill="#3086C8"/>
<path d="M27.8007 9.36005C27.6851 9.24449 27.5695 9.24449 27.454 9.24449C27.3384 9.24449 27.2229 9.24449 27.1073 9.12894C26.7607 9.01338 26.2984 9.01338 25.8362 9.01338H22.3695C22.254 9.01338 22.1384 9.01338 22.1384 9.12894C21.9073 9.24449 21.7917 9.36005 21.7917 9.59116L20.9828 14.6756V14.7912C20.9828 14.4445 21.3295 14.2134 21.6762 14.2134H23.1784C26.0673 14.2134 27.9162 13.0578 28.494 9.82227V9.59116C28.3784 9.47561 28.1473 9.36005 27.9162 9.36005H27.8007Z" fill="#012169"/>
</g>
<defs>
<clipPath id="clip0_93_516">
<rect width="43.9113" height="27.7335" fill="white" transform="translate(0.876099)"/>
</clipPath>
</defs>
</svg>
