<svg width="45" height="28" viewBox="0 0 45 28" fill="none" xmlns="http://www.w3.org/2000/svg">
<g clip-path="url(#clip0_93_528)">
<path opacity="0.07" d="M40.7874 0H3.80945C1.845 0 0.342773 1.50223 0.342773 3.46668V24.2668C0.342773 26.2312 1.96056 27.7335 3.80945 27.7335H40.7874C42.7518 27.7335 44.2541 26.2312 44.2541 24.2668V3.46668C44.2541 1.50223 42.6363 0 40.7874 0Z" fill="black"/>
<path d="M40.7874 1.15556C42.0585 1.15556 43.0985 2.19557 43.0985 3.46669V24.2668C43.0985 25.5379 42.0585 26.5779 40.7874 26.5779H3.80944C2.53833 26.5779 1.49832 25.5379 1.49832 24.2668V3.46669C1.49832 2.19557 2.53833 1.15556 3.80944 1.15556H40.7874Z" fill="white"/>
<path d="M21.2503 13.839V17.5368H20.074V8.40786H23.1836C23.5562 8.40155 23.9263 8.46895 24.2728 8.60618C24.6192 8.74342 24.9351 8.94777 25.2024 9.20751C25.4555 9.4437 25.6595 9.72746 25.8029 10.0426C25.9463 10.3577 26.0262 10.6979 26.038 11.0439C26.0498 11.3899 25.9933 11.7348 25.8717 12.059C25.7501 12.3831 25.5659 12.6801 25.3295 12.933L25.2024 13.0671C24.6592 13.5836 23.9335 13.8644 23.1836 13.8459L21.2503 13.839ZM21.2503 9.52644V12.7481H23.2125C23.6481 12.762 24.0687 12.5921 24.3738 12.2813C24.592 12.0539 24.7386 11.7673 24.7952 11.4572C24.8518 11.1471 24.816 10.8272 24.6922 10.5374C24.5685 10.2475 24.3622 10.0004 24.0991 9.8268C23.836 9.65322 23.5277 9.56083 23.2125 9.56111L21.2503 9.52644ZM28.743 11.0841C29.4941 11.0495 30.229 11.3014 30.7976 11.7925C31.3118 12.2894 31.5857 12.9827 31.5487 13.698V17.5507H30.429V16.6655H30.3723C30.1715 16.9975 29.8876 17.2714 29.5485 17.46C29.2095 17.6487 28.8271 17.7457 28.4391 17.7413C27.8057 17.7618 27.1881 17.5418 26.7104 17.1254C26.484 16.9408 26.3026 16.7071 26.1799 16.442C26.0572 16.177 25.9964 15.8875 26.002 15.5954C25.9887 15.3003 26.046 15.0063 26.1692 14.7377C26.2924 14.4692 26.4779 14.234 26.7104 14.0516C27.2805 13.6416 27.9706 13.4323 28.6725 13.4565C29.2699 13.4334 29.8627 13.564 30.3943 13.839V13.5986C30.3982 13.3999 30.3568 13.2029 30.2733 13.0225C30.1899 12.8421 30.0664 12.6831 29.9124 12.5575C29.6031 12.2763 29.1979 12.1241 28.78 12.1322C28.4764 12.1294 28.1772 12.204 27.9105 12.3489C27.6438 12.4939 27.4185 12.7045 27.2558 12.9608L26.2216 12.309C26.5024 11.9067 26.8815 11.5829 27.3229 11.3685C27.7642 11.1541 28.2531 11.0562 28.743 11.0841ZM27.2558 15.6232C27.253 15.7728 27.2871 15.9209 27.355 16.0543C27.4229 16.1877 27.5226 16.3024 27.6452 16.3882C27.9029 16.5915 28.223 16.699 28.5523 16.6921C29.0481 16.6909 29.523 16.4956 29.8766 16.1467C30.229 15.8162 30.429 15.3551 30.429 14.8721C29.9841 14.5558 29.4436 14.4031 28.899 14.4399C28.4762 14.4232 28.0591 14.5423 27.7088 14.7796C27.57 14.8724 27.4562 14.9979 27.3772 15.145C27.2982 15.292 27.2565 15.4562 27.2558 15.6232ZM37.9863 11.2898L34.069 20.2916H32.8579L34.3382 17.1393L31.7682 11.2898H33.0428L34.9056 15.7792L36.7187 11.2898H37.9863Z" fill="#5F6368"/>
<path d="M16.5044 13.0393C16.5044 12.6834 16.4767 12.3275 16.4201 11.9762H11.4627V13.995H14.295C14.2374 14.3158 14.1155 14.6217 13.9368 14.8943C13.7581 15.167 13.5262 15.4007 13.255 15.5816V16.892H14.9468C15.4611 16.3943 15.8655 15.7943 16.1338 15.1307C16.4021 14.4671 16.5284 13.7547 16.5044 13.0393Z" fill="#4285F4"/>
<path d="M11.4697 18.1666C12.7481 18.2017 13.9918 17.7484 14.9479 16.8989L13.2538 15.5816C12.8468 15.8426 12.3856 16.0073 11.9053 16.0632C11.425 16.1192 10.9383 16.0649 10.4822 15.9044C10.0261 15.744 9.61254 15.4816 9.27304 15.1374C8.93354 14.7931 8.67701 14.3759 8.52298 13.9176H6.78732V15.2696C7.22164 16.1398 7.88978 16.8717 8.71683 17.3834C9.54387 17.8951 10.4971 18.1663 11.4697 18.1666Z" fill="#34A853"/>
<path d="M8.523 13.9245C8.3032 13.2743 8.3032 12.5698 8.523 11.9196V10.5676H6.78735C6.41732 11.2973 6.22449 12.1039 6.22449 12.9221C6.22449 13.7402 6.41732 14.5468 6.78735 15.2765L8.523 13.9245Z" fill="#FBBC04"/>
<path d="M11.4697 9.75294C12.2173 9.73928 12.9401 10.0217 13.4803 10.5387L14.9826 9.04458C14.0247 8.14557 12.7542 7.6552 11.4408 7.67755C10.474 7.6824 9.52743 7.95489 8.70605 8.46481C7.88467 8.97473 7.22055 9.70216 6.78732 10.5665L8.52297 11.9196C8.72592 11.2957 9.11935 10.7511 9.64792 10.3625C10.1765 9.97381 10.8136 9.76063 11.4697 9.75294Z" fill="#EA4335"/>
</g>
<defs>
<clipPath id="clip0_93_528">
<rect width="43.9113" height="27.7335" fill="white" transform="translate(0.342773)"/>
</clipPath>
</defs>
</svg>
