<svg width="45" height="28" viewBox="0 0 45 28" fill="none" xmlns="http://www.w3.org/2000/svg">
<g clip-path="url(#clip0_93_552)">
<path opacity="0.07" d="M41.4091 0H4.43116C2.46671 0 0.964478 1.50223 0.964478 3.46668V24.2668C0.964478 26.2312 2.58226 27.7335 4.43116 27.7335H41.4091C43.3735 27.7335 44.8758 26.2312 44.8758 24.2668V3.46668C44.8758 1.50223 43.258 0 41.4091 0Z" fill="black"/>
<path d="M41.4091 1.15556C42.6802 1.15556 43.7202 2.19557 43.7202 3.46669V24.2668C43.7202 25.5379 42.6802 26.5779 41.4091 26.5779H4.43115C3.16003 26.5779 2.12003 25.5379 2.12003 24.2668V3.46669C2.12003 2.19557 3.16003 1.15556 4.43115 1.15556H41.4091Z" fill="white"/>
<path d="M14.8312 13.8667V18.1423C14.8312 18.489 14.6001 18.489 14.2534 18.3734C12.0579 17.449 10.7867 14.5601 11.5956 12.1334C12.0579 10.8623 12.9823 9.82227 14.2534 9.36004C14.7156 9.12893 14.8312 9.24449 14.8312 9.59115V13.8667ZM17.1423 13.8667V9.59115C17.1423 9.24449 17.1423 9.24449 17.489 9.36004C19.9157 10.2845 21.1868 13.1734 20.2623 15.6001C19.8001 16.8712 18.8757 17.9112 17.6045 18.3734C17.1423 18.6045 17.1423 18.489 17.1423 18.1423V13.8667ZM25.4624 5.7778H15.9868C20.3779 5.7778 23.8446 9.36004 23.8446 13.8667C23.8446 18.3734 20.3779 21.9557 15.9868 21.9557H25.4624C29.8535 21.9557 33.3202 18.3734 33.3202 13.8667C33.3202 9.36004 29.8535 5.7778 25.4624 5.7778Z" fill="#3086C8"/>
</g>
<defs>
<clipPath id="clip0_93_552">
<rect width="43.9113" height="27.7335" fill="white" transform="translate(0.964478)"/>
</clipPath>
</defs>
</svg>
