

<svg width="40" height="40" viewBox="0 0 40 40" fill="none" xmlns="http://www.w3.org/2000/svg">
<path d="M31.7525 24.0513C32.5737 26.1225 33.8712 28.1738 35.6087 30.1475C35.8776 30.4493 36.0403 30.8307 36.0719 31.2337C36.1035 31.6366 36.0023 32.0388 35.7837 32.3788C35.572 32.7167 35.2551 32.9758 34.8819 33.1163C34.5086 33.2567 34.0995 33.2708 33.7175 33.1563C30.035 32.08 21.4437 28.2575 21.2137 16.0413C21.125 11.3238 24.575 7.27126 29.0675 6.81376C30.2912 6.68982 31.5273 6.82294 32.6966 7.20459C33.8659 7.58624 34.9425 8.208 35.8575 9.03001C36.7672 9.85293 37.4946 10.8572 37.9927 11.9782C38.4909 13.0992 38.7489 14.3121 38.75 15.5388C38.75 19.6675 35.8187 23.2788 31.7525 24.0513ZM34.1812 10.885C33.0342 9.83968 31.5369 9.26251 29.985 9.26751C29.765 9.26751 29.5425 9.28001 29.32 9.30251C26.1112 9.62751 23.6487 12.5675 23.7137 15.9938C23.8725 24.4463 28.45 28.2525 32.24 29.955C31.04 28.3325 30.0987 26.6638 29.4275 24.9725C29.2985 24.6476 29.2423 24.2983 29.2628 23.9493C29.2833 23.6003 29.3801 23.2601 29.5462 22.9525C29.7229 22.6272 29.9686 22.3444 30.2662 22.1241C30.5638 21.9039 30.906 21.7514 31.2687 21.6775C32.6756 21.3773 33.9373 20.6043 34.8436 19.4871C35.7499 18.37 36.2463 16.9761 36.25 15.5375C36.25 13.7688 35.4962 12.0725 34.1812 10.8838V10.885ZM15.82 32.3788C15.6083 32.7165 15.2917 32.9754 14.9186 33.1158C14.5456 33.2563 14.1369 33.2705 13.755 33.1563C10.0725 32.08 1.48249 28.2575 1.25125 16.0413C1.16375 11.3225 4.61375 7.27126 9.10625 6.81376C10.3299 6.68844 11.5662 6.8209 12.7354 7.20263C13.9047 7.58435 14.981 8.20685 15.895 9.03001C16.8047 9.85293 17.5321 10.8572 18.0302 11.9782C18.5284 13.0992 18.7864 14.3121 18.7875 15.5388C18.7875 19.6675 15.8575 23.2788 11.7912 24.0513C12.6125 26.125 13.91 28.1763 15.6475 30.1475C15.9164 30.4493 16.0789 30.831 16.11 31.234C16.1412 31.6371 16.0393 32.0392 15.82 32.3788ZM9.46625 24.9738C9.33715 24.6489 9.28077 24.2997 9.30107 23.9507C9.32137 23.6018 9.41786 23.2615 9.58375 22.9538C9.76019 22.628 10.0058 22.3448 10.3034 22.1241C10.601 21.9034 10.9433 21.7505 11.3062 21.6763C12.7127 21.3761 13.974 20.6035 14.8803 19.4868C15.7866 18.3702 16.2832 16.9769 16.2875 15.5388C16.2875 13.7688 15.5337 12.0738 14.2187 10.885C13.0721 9.83986 11.5752 9.2627 10.0237 9.26751C9.80375 9.26751 9.58125 9.28001 9.35875 9.30251C6.15 9.62751 3.68624 12.5675 3.75125 15.9938C3.91 24.4475 8.48875 28.2525 12.2775 29.955C11.0787 28.3338 10.1387 26.665 9.46625 24.9738Z" fill="#F47C27"/>
</svg>
