<svg width="24" height="25" viewBox="0 0 24 25" fill="none" xmlns="http://www.w3.org/2000/svg">
<g clip-path="url(#clip0_93_254)">
<path d="M22.1119 24.8137L13.696 16.3976C13.056 16.9523 12.3093 17.3843 11.4559 17.6936C10.6026 18.003 9.69598 18.1577 8.73598 18.1577C6.43198 18.1577 4.47998 17.3576 2.87998 15.7577C1.27998 14.1577 0.47998 12.227 0.47998 9.96568C0.47998 7.70435 1.27998 5.77368 2.87998 4.17368C4.47998 2.57368 6.42132 1.77368 8.70398 1.77368C10.9653 1.77368 12.8907 2.57368 14.4799 4.17368C16.0693 5.77368 16.864 7.70435 16.864 9.96568C16.864 10.883 16.7146 11.7683 16.416 12.6217C16.1173 13.475 15.6693 14.275 15.072 15.0217L23.52 23.4056L22.1119 24.8137ZM8.70398 16.2377C10.432 16.2377 11.904 15.6244 13.12 14.3977C14.3359 13.171 14.944 11.6936 14.944 9.96568C14.944 8.23769 14.3359 6.76035 13.12 5.53368C11.904 4.30701 10.432 3.69368 8.70398 3.69368C6.95464 3.69368 5.46664 4.30701 4.23998 5.53368C3.01331 6.76035 2.39998 8.23769 2.39998 9.96568C2.39998 11.6936 3.01331 13.171 4.23998 14.3977C5.46664 15.6244 6.95464 16.2377 8.70398 16.2377Z" fill="black"/>
</g>
<defs>
<clipPath id="clip0_93_254">
<rect width="24" height="24" fill="white" transform="translate(0 0.845703)"/>
</clipPath>
</defs>
</svg>
