<svg width="28" height="29" viewBox="0 0 28 29" fill="none" xmlns="http://www.w3.org/2000/svg">
<g clip-path="url(#clip0_93_252)">
<path d="M5.40033 22.3458C6.80033 21.368 8.18921 20.618 9.56699 20.0958C10.9448 19.5736 12.4225 19.3124 14.0003 19.3124C15.5781 19.3124 17.0614 19.5736 18.4503 20.0958C19.8392 20.618 21.2337 21.368 22.6337 22.3458C23.6114 21.1458 24.3059 19.9347 24.717 18.7124C25.1281 17.4902 25.3337 16.2013 25.3337 14.8458C25.3337 11.6236 24.2503 8.92911 22.0837 6.76245C19.917 4.59578 17.2225 3.51245 14.0003 3.51245C10.7781 3.51245 8.08366 4.59578 5.91699 6.76245C3.75033 8.92911 2.66699 11.6236 2.66699 14.8458C2.66699 16.2013 2.8781 17.4902 3.30033 18.7124C3.72255 19.9347 4.42255 21.1458 5.40033 22.3458ZM14.0003 15.8458C12.7114 15.8458 11.6281 15.4069 10.7503 14.5291C9.87255 13.6513 9.43366 12.568 9.43366 11.2791C9.43366 9.99023 9.87255 8.90689 10.7503 8.02911C11.6281 7.15134 12.7114 6.71245 14.0003 6.71245C15.2892 6.71245 16.3725 7.15134 17.2503 8.02911C18.1281 8.90689 18.567 9.99023 18.567 11.2791C18.567 12.568 18.1281 13.6513 17.2503 14.5291C16.3725 15.4069 15.2892 15.8458 14.0003 15.8458ZM14.0003 28.1791C12.1781 28.1791 10.4559 27.8291 8.83366 27.1291C7.21144 26.4291 5.79477 25.4736 4.58366 24.2624C3.37255 23.0513 2.41699 21.6347 1.71699 20.0124C1.01699 18.3902 0.666992 16.668 0.666992 14.8458C0.666992 13.0013 1.01699 11.2736 1.71699 9.66245C2.41699 8.05134 3.37255 6.64023 4.58366 5.42911C5.79477 4.218 7.21144 3.26245 8.83366 2.56245C10.4559 1.86245 12.1781 1.51245 14.0003 1.51245C15.8448 1.51245 17.5725 1.86245 19.1837 2.56245C20.7948 3.26245 22.2059 4.218 23.417 5.42911C24.6281 6.64023 25.5837 8.05134 26.2837 9.66245C26.9837 11.2736 27.3337 13.0013 27.3337 14.8458C27.3337 16.668 26.9837 18.3902 26.2837 20.0124C25.5837 21.6347 24.6281 23.0513 23.417 24.2624C22.2059 25.4736 20.7948 26.4291 19.1837 27.1291C17.5725 27.8291 15.8448 28.1791 14.0003 28.1791ZM14.0003 26.1791C15.2225 26.1791 16.417 26.0013 17.5837 25.6458C18.7503 25.2902 19.9003 24.668 21.0337 23.7791C19.9003 22.9791 18.7448 22.368 17.567 21.9458C16.3892 21.5236 15.2003 21.3124 14.0003 21.3124C12.8003 21.3124 11.6114 21.5236 10.4337 21.9458C9.25588 22.368 8.10033 22.9791 6.96699 23.7791C8.10033 24.668 9.25033 25.2902 10.417 25.6458C11.5837 26.0013 12.7781 26.1791 14.0003 26.1791ZM14.0003 13.8458C14.7559 13.8458 15.3725 13.6069 15.8503 13.1291C16.3281 12.6513 16.567 12.0347 16.567 11.2791C16.567 10.5236 16.3281 9.90689 15.8503 9.42911C15.3725 8.95134 14.7559 8.71245 14.0003 8.71245C13.2448 8.71245 12.6281 8.95134 12.1503 9.42911C11.6725 9.90689 11.4337 10.5236 11.4337 11.2791C11.4337 12.0347 11.6725 12.6513 12.1503 13.1291C12.6281 13.6069 13.2448 13.8458 14.0003 13.8458Z" fill="black"/>
</g>
<defs>
<clipPath id="clip0_93_252">
<rect width="28" height="28" fill="white" transform="translate(0 0.845703)"/>
</clipPath>
</defs>
</svg>
