<svg width="45" height="28" viewBox="0 0 45 28" fill="none" xmlns="http://www.w3.org/2000/svg">
<g clip-path="url(#clip0_93_508)">
<path opacity="0.07" d="M40.6995 0H3.72156C1.75711 0 0.254883 1.50223 0.254883 3.46668V24.2668C0.254883 26.2312 1.87267 27.7335 3.72156 27.7335H40.6995C42.664 27.7335 44.1662 26.2312 44.1662 24.2668V3.46668C44.1662 1.50223 42.5484 0 40.6995 0Z" fill="black"/>
<path d="M40.6995 1.15556C41.9706 1.15556 43.0106 2.19557 43.0106 3.46669V24.2668C43.0106 25.5379 41.9706 26.5779 40.6995 26.5779H3.72158C2.45047 26.5779 1.41046 25.5379 1.41046 24.2668V3.46669C1.41046 2.19557 2.45047 1.15556 3.72158 1.15556H40.6995Z" fill="white"/>
<path d="M32.9573 11.6712H32.6106C32.1484 12.8267 31.8017 13.4045 31.455 15.1379H33.6506C33.3039 13.4045 33.3039 12.5956 32.9573 11.6712ZM36.3084 18.489H34.3439C34.2284 18.489 34.2284 18.489 34.1128 18.3734L33.8817 17.3334L33.7662 17.1023H30.9928C30.8773 17.1023 30.7617 17.1023 30.7617 17.3334L30.415 18.3734C30.415 18.489 30.2995 18.489 30.2995 18.489H27.8728L28.1039 17.9112L31.455 10.0534C31.455 9.4756 31.8017 9.24449 32.3795 9.24449H34.1128C34.2284 9.24449 34.3439 9.24449 34.3439 9.4756L35.9617 16.9868C36.0773 17.449 36.1928 17.7956 36.1928 18.2579C36.3084 18.3734 36.3084 18.3734 36.3084 18.489ZM20.8239 18.1423L21.2861 16.0623C21.4017 16.0623 21.5172 16.1779 21.5172 16.1779C22.3261 16.5245 23.135 16.7556 23.9439 16.6401C24.175 16.6401 24.5217 16.5245 24.7528 16.409C25.3306 16.1779 25.3306 15.6001 24.8683 15.1379C24.6372 14.9067 24.2906 14.7912 23.9439 14.5601C23.4817 14.329 23.0195 14.0978 22.6728 13.7512C21.2861 12.5956 21.7483 10.9778 22.5572 10.1689C23.2506 9.70672 23.5972 9.24449 24.5217 9.24449C25.9084 9.24449 27.4106 9.24449 28.1039 9.4756H28.2195C28.1039 10.1689 27.9884 10.7467 27.7573 11.4401C27.1795 11.2089 26.6017 10.9778 26.0239 10.9778C25.6772 10.9778 25.3306 10.9778 24.9839 11.0934C24.7528 11.0934 24.6372 11.2089 24.5217 11.3245C24.2906 11.5556 24.2906 11.9023 24.5217 12.1334L25.0995 12.5956C25.5617 12.8267 26.0239 13.0578 26.3706 13.289C26.9484 13.6356 27.5261 14.2134 27.6417 14.9067C27.8728 15.9467 27.5261 16.8712 26.6017 17.5645C26.0239 18.0268 25.7928 18.2579 24.9839 18.2579C23.3661 18.2579 22.095 18.3734 21.055 18.0268C20.9394 18.2579 20.9394 18.2579 20.8239 18.1423ZM16.7794 18.489C16.895 17.6801 16.895 17.6801 17.0105 17.3334C17.5883 14.7912 18.1661 12.1334 18.6283 9.59116C18.7439 9.36005 18.7439 9.24449 18.975 9.24449H21.055C20.8239 10.6312 20.5928 11.6712 20.2461 12.9423C19.8994 14.6756 19.5528 16.409 19.0905 18.1423C19.0905 18.3734 18.975 18.3734 18.7439 18.3734M6.03271 9.4756C6.03271 9.36005 6.26383 9.24449 6.37938 9.24449H10.3083C10.8861 9.24449 11.3483 9.59116 11.4638 10.1689L12.5039 15.2534C12.5039 15.369 12.5039 15.369 12.6194 15.4845C12.6194 15.369 12.735 15.369 12.735 15.369L15.1616 9.4756C15.0461 9.36005 15.1616 9.24449 15.2772 9.24449H17.7039C17.7039 9.36005 17.7039 9.36005 17.5883 9.4756L14.0061 17.9112C13.8905 18.1423 13.8905 18.2579 13.775 18.3734C13.6594 18.489 13.4283 18.3734 13.1972 18.3734H11.4638C11.3483 18.3734 11.2327 18.3734 11.2327 18.1423L9.38384 10.9778C9.15273 10.7467 8.80606 10.4001 8.34384 10.2845C7.6505 9.93783 6.37938 9.70672 6.14827 9.70672L6.03271 9.4756Z" fill="#142688"/>
</g>
<defs>
<clipPath id="clip0_93_508">
<rect width="43.9113" height="27.7335" fill="white" transform="translate(0.254883)"/>
</clipPath>
</defs>
</svg>
